<svg xmlns:xlink="http://www.w3.org/1999/xlink" xmlns="http://www.w3.org/2000/svg" width="18" height="19" viewBox="0 0 18 19">
    <g fill="none" fill-rule="evenodd">
        <g>
            <g>
                <g>
                    <g>
                        <path d="M0 0L18 0 18 18 0 18z" transform="translate(-272 -551) translate(0 539) translate(203 7.5) translate(69 5)"/>
                        <path fill="#6596FF" d="M13.923 3.41c.182-.177.473-.175.653.004.182.182.182.477 0 .66L9.67 8.985l4.907 4.914c.181.182.181.477 0 .66-.181.18-.472.18-.654.004l-.006-.005-4.905-4.914L4.11 14.56c-.188.182-.479.18-.659 0-.182-.182-.182-.477 0-.659l4.904-4.914L3.45 4.073c-.182-.182-.182-.477 0-.659.18-.18.471-.181.653-.004l.006.005 4.903 4.912 4.905-4.912z" transform="translate(-272 -551) translate(0 539) translate(203 7.5) translate(69 5)"/>
                    </g>
                </g>
            </g>
        </g>
    </g>
</svg>