<svg width="18" height="18" viewBox="0 0 18 18" fill="none" xmlns="http://www.w3.org/2000/svg">
<path fill-rule="evenodd" clip-rule="evenodd" d="M12.4688 15.445C13.9584 14.6622 15.1283 13.3569 15.7681 11.7639C16.4079 10.1708 16.4755 8.3946 15.9589 6.7547C15.4423 5.1148 14.3753 3.71884 12.9498 2.8179C11.5244 1.91696 9.83401 1.57017 8.18278 1.83991C6.53154 2.10965 5.02781 2.97821 3.94205 4.28937C2.85629 5.60054 2.25976 7.26824 2.25976 8.99254C2.25976 9.25375 2.46507 9.4655 2.71833 9.4655C2.97159 9.4655 3.1769 9.25375 3.1769 8.99254C3.1769 7.49347 3.69551 6.0436 4.63944 4.9037C5.58338 3.7638 6.8907 3.00869 8.32625 2.77418C9.7618 2.53968 11.2314 2.84117 12.4706 3.62443C13.7099 4.40769 14.6375 5.62131 15.0867 7.04701C15.5358 8.4727 15.477 10.0169 14.9208 11.4019C14.3646 12.7868 13.3475 13.9216 12.0524 14.6022C10.7574 15.2828 9.26944 15.4644 7.85615 15.1144C6.44287 14.7645 5.19702 13.9059 4.34271 12.6932C4.19385 12.4818 3.90707 12.435 3.70218 12.5885C3.49729 12.7421 3.45187 13.0378 3.60073 13.2492C4.5834 14.6441 6.01643 15.6317 7.64205 16.0342C9.26768 16.4368 10.9792 16.2278 12.4688 15.445Z" fill="#AAADB3"/>
<path fill-rule="evenodd" clip-rule="evenodd" d="M1.50965 6.64739C1.73345 6.52513 2.01098 6.61314 2.12952 6.84397L2.82512 8.19847L3.89175 7.09835C4.07083 6.91365 4.36118 6.91365 4.54026 7.09835C4.71935 7.28306 4.71935 7.58252 4.54026 7.76722L3.03469 9.32005C2.9318 9.42617 2.78618 9.47563 2.64229 9.45333C2.4984 9.43103 2.37331 9.33962 2.3052 9.20699L1.31905 7.28672C1.20051 7.05589 1.28584 6.76965 1.50965 6.64739Z" fill="#AAADB3"/>
<path fill-rule="evenodd" clip-rule="evenodd" d="M9.16149 4.64387C9.41875 4.64387 9.62731 4.85242 9.62731 5.10969V9.3354L11.4381 11.203C11.6172 11.3877 11.6126 11.6826 11.4279 11.8617C11.2432 12.0408 10.9483 12.0362 10.7692 11.8515L8.82705 9.8484C8.74279 9.76149 8.69567 9.64519 8.69567 9.52414V5.10969C8.69567 4.85242 8.90422 4.64387 9.16149 4.64387Z" fill="#AAADB3"/>
</svg>
