<svg xmlns="http://www.w3.org/2000/svg" xmlns:xlink="http://www.w3.org/1999/xlink" width="24" height="24" viewBox="0 0 24 24" version="1.1">
    <!-- Generator: Sketch 63.1 (92452) - https://sketch.com -->
    <title>icon/ ic_trash_service</title>
    <desc>Created with Sketch.</desc>
    <defs>
        <path d="M13.5,3.63636364 L17.1,3.63636364 C17.5970562,3.63636364 18,4.0433775 18,4.54545454 C18,5.04753158 17.5970562,5.45454545 17.1,5.45454545 L16.2,5.45454545 L16.2,17.2727273 C16.2,18.7789583 14.9911688,20 13.5,20 L4.5,20 C3.00883117,20 1.8,18.7789583 1.8,17.2727273 L1.8,5.45454545 L0.899999995,5.45454545 C0.402943724,5.45454545 0,5.04753158 0,4.54545454 C0,4.0433775 0.402943724,3.63636364 0.899999995,3.63636364 L4.5,3.63636364 L4.5,2.72727272 C4.5,1.22104159 5.70883117,0 7.19999998,0 L10.8,0 C12.2911688,0 13.5,1.22104159 13.5,2.72727272 L13.5,3.63636364 Z M11.7,3.63636364 L11.7,2.72727272 C11.7,2.22519568 11.2970563,1.81818182 10.8,1.81818182 L7.19999998,1.81818182 C6.70294371,1.81818182 6.29999999,2.22519568 6.29999999,2.72727272 L6.29999999,3.63636364 L11.7,3.63636364 Z M14.4,5.45454545 L3.6,5.45454545 L3.6,17.2727273 C3.6,17.7748043 4.00294372,18.1818182 4.49999999,18.1818182 L13.5,18.1818182 C13.9970562,18.1818182 14.4,17.7748043 14.4,17.2727273 L14.4,5.45454545 Z M6.29999999,9.09090905 C6.29999999,8.58883208 6.70294371,8.18181818 7.19999998,8.18181818 C7.69705622,8.18181818 8.09999999,8.58883208 8.09999999,9.09090905 L8.09999999,14.5454546 C8.09999999,15.0475316 7.69705622,15.4545455 7.19999998,15.4545455 C6.70294371,15.4545455 6.29999999,15.0475316 6.29999999,14.5454546 L6.29999999,9.09090905 Z M9.89999994,9.09090905 C9.89999994,8.58883208 10.3029437,8.18181818 10.8,8.18181818 C11.2970563,8.18181818 11.7,8.58883208 11.7,9.09090905 L11.7,14.5454546 C11.7,15.0475316 11.2970563,15.4545455 10.8,15.4545455 C10.3029437,15.4545455 9.89999994,15.0475316 9.89999994,14.5454546 L9.89999994,9.09090905 Z" id="path-1"/>
    </defs>
    <g id="icon/-ic_trash_service" stroke="none" stroke-width="1" fill="none" fill-rule="evenodd">
        <g id="Group" transform="translate(2.500000, 2.000000)">
            <g id="ic_trash-2">
                <g id="Group">
                    <g transform="translate(0.987270, 0.085997)">
                        <g id="ic_trash-2">
                            <g id="Group">
                                <g id="trash-2">
                                    <g id="Group">
                                        <g id="COLOR/-black-Clipped">
                                            <g>
                                                <mask id="mask-2" fill="white">
                                                    <use xlink:href="#path-1"/>
                                                </mask>
                                                <g id="path-1"/>
                                                <g id="COLOR/-black" mask="url(#mask-2)">
                                                    <g transform="translate(-2.182909, -1.091455)" id="Rectangle">
                                                        <g transform="translate(0.197454, 0.098728)">
                                                            <g id="Group" fill="#FB6184" fill-rule="nonzero">
                                                                <rect id="Rectangle" x="0" y="0" width="23.8254606" height="23.8254606"/>
                                                            </g>
                                                        </g>
                                                    </g>
                                                </g>
                                            </g>
                                        </g>
                                    </g>
                                </g>
                            </g>
                        </g>
                    </g>
                </g>
            </g>
        </g>
    </g>
</svg>