<svg xmlns:xlink="http://www.w3.org/1999/xlink" xmlns="http://www.w3.org/2000/svg" width="18" height="18" viewBox="0 0 18 18" fill="none">
<path d="M7.20703 9.19604C7.20703 9.63291 6.85288 9.98706 6.41602 9.98706C5.97915 9.98706 5.625 9.63291 5.625 9.19604C5.625 8.75918 5.97915 8.40503 6.41602 8.40503C6.85288 8.40503 7.20703 8.75918 7.20703 9.19604Z" fill="#2B3340"/>
<path d="M12.3574 9.19604C12.3574 9.63291 12.0033 9.98706 11.5664 9.98706C11.1295 9.98706 10.7754 9.63291 10.7754 9.19604C10.7754 8.75918 11.1295 8.40503 11.5664 8.40503C12.0033 8.40503 12.3574 8.75918 12.3574 9.19604Z" fill="#2B3340"/>
<path d="M7.69995 10.9379C7.65263 10.6866 7.41119 10.5201 7.15911 10.5658C6.90597 10.6117 6.73795 10.8541 6.78383 11.1073L7.24219 11.0242C6.78383 11.1073 6.78388 11.1075 6.78392 11.1077L6.78402 11.1082L6.78422 11.1094C6.78437 11.1102 6.78454 11.1111 6.78472 11.112L6.7852 11.1145C6.78546 11.1159 6.78574 11.1173 6.78606 11.1189C6.7871 11.1242 6.78846 11.1308 6.79018 11.1387C6.7936 11.1545 6.79845 11.1754 6.80498 11.2008C6.81802 11.2514 6.83796 11.3203 6.86712 11.4014C6.92498 11.5624 7.02178 11.7791 7.17868 11.9984C7.5026 12.451 8.074 12.8962 9 12.8962C9.926 12.8962 10.4974 12.451 10.8213 11.9984C10.9782 11.7791 11.075 11.5624 11.1329 11.4014C11.162 11.3203 11.182 11.2514 11.195 11.2008C11.2016 11.1754 11.2064 11.1545 11.2098 11.1387C11.2106 11.1353 11.2112 11.1321 11.2119 11.1291L11.2123 11.1268C11.2129 11.1239 11.2135 11.1213 11.2139 11.1189C11.2142 11.1178 11.2144 11.1168 11.2145 11.1158C11.2148 11.1144 11.2151 11.1132 11.2153 11.112C11.2155 11.1111 11.2156 11.1102 11.2158 11.1094L11.216 11.1082L11.2161 11.1077C11.2161 11.1075 11.2162 11.1073 10.7578 11.0242L11.2162 11.1073C11.262 10.8541 11.094 10.6117 10.8409 10.5658C10.5888 10.5201 10.3474 10.6866 10.3 10.9379C10.2999 10.9385 10.2997 10.9396 10.2993 10.9412C10.2983 10.946 10.2962 10.9553 10.2928 10.9684C10.2861 10.9947 10.2743 11.0357 10.2561 11.0864C10.2192 11.189 10.1584 11.3239 10.0637 11.4562C9.88444 11.7067 9.57693 11.9646 9 11.9646C8.42307 11.9646 8.11556 11.7067 7.93631 11.4562C7.84162 11.3239 7.78077 11.189 7.74387 11.0864C7.72565 11.0357 7.71394 10.9947 7.70717 10.9684C7.7038 10.9553 7.7017 10.946 7.70065 10.9412C7.7003 10.9396 7.70007 10.9385 7.69995 10.9379Z" fill="#2B3340"/>
<path fill-rule="evenodd" clip-rule="evenodd" d="M9.46582 3.17038C9.76446 3.00586 9.9668 2.68806 9.9668 2.323C9.9668 1.78905 9.53395 1.3562 9 1.3562C8.46605 1.3562 8.0332 1.78905 8.0332 2.323C8.0332 2.68806 8.23554 3.00586 8.53418 3.17038V4.10718H4.5C3.46608 4.10718 2.62793 4.94533 2.62793 5.97925V13.9949C2.62793 15.0288 3.46608 15.8669 4.5 15.8669H13.5C14.5339 15.8669 15.3721 15.0288 15.3721 13.9949V5.97925C15.3721 4.94533 14.5339 4.10718 13.5 4.10718H9.46582V3.17038ZM4.5 5.03882C3.98061 5.03882 3.55957 5.45986 3.55957 5.97925V13.9949C3.55957 14.5143 3.98062 14.9353 4.5 14.9353H13.5C14.0194 14.9353 14.4404 14.5143 14.4404 13.9949V5.97925C14.4404 5.45986 14.0194 5.03882 13.5 5.03882H4.5Z" fill="#2B3340"/>
<path d="M2.15332 8.40503C2.15332 8.14776 1.94477 7.93921 1.6875 7.93921C1.43023 7.93921 1.22168 8.14776 1.22168 8.40503V11.5691C1.22168 11.8264 1.43023 12.0349 1.6875 12.0349C1.94477 12.0349 2.15332 11.8264 2.15332 11.5691V8.40503Z" fill="#2B3340"/>
<path d="M16.3125 7.93921C16.5698 7.93921 16.7783 8.14776 16.7783 8.40503V11.5691C16.7783 11.8264 16.5698 12.0349 16.3125 12.0349C16.0552 12.0349 15.8467 11.8264 15.8467 11.5691V8.40503C15.8467 8.14776 16.0552 7.93921 16.3125 7.93921Z" fill="#2B3340"/>
</svg>