<svg xmlns="http://www.w3.org/2000/svg" xmlns:xlink="http://www.w3.org/1999/xlink" width="35" height="18" viewBox="0 0 35 18" version="1.1">
    <title>ic-new</title>
    <g id="ic-new" stroke="none" stroke-width="1" fill="none" fill-rule="evenodd">
        <g fill-rule="nonzero">
            <path d="M10.6629415,0.09677419 L31.4418132,0.09677419 C32.9145725,0.09677419 34.1084798,1.29068153 34.1084798,2.76344086 L34.1084798,14.9784946 C34.1084798,16.451254 32.9145725,17.6451613 31.4418132,17.6451613 L10.6629415,17.6451613 C10.049495,17.6451613 9.45480638,17.4336601 8.9791211,17.0463099 L1.47877403,10.938783 C0.336751194,10.0088347 0.164830832,8.3291702 1.09477916,7.1871473 C1.20937695,7.0464155 1.33804223,6.91775027 1.47877403,6.80315247 L8.9791211,0.69562559 C9.45480638,0.30827543 10.049495,0.09677419 10.6629415,0.09677419 Z" id="Path" fill="#FA1E50"/>
            <path d="M9.24695194,12.3262097 C9.09780347,12.3262097 8.96885412,12.2732868 8.86010002,12.1674395 C8.75134593,12.0615922 8.6969697,11.9360894 8.6969697,11.7909274 L8.6969697,5.94818548 C8.6969697,5.80302347 8.75134593,5.67752069 8.86010002,5.57167339 C8.96885412,5.46582608 9.09780347,5.41290323 9.24695194,5.41290323 L9.88082978,5.41290323 C10.0548363,5.41290323 10.2133042,5.45524151 10.3562382,5.53991935 C10.4991721,5.6245972 10.6110318,5.7395154 10.6918205,5.88467742 L12.2019413,8.7243952 L12.8917495,10.2304435 C12.897964,10.2485888 12.9088393,10.2576613 12.9243756,10.2576613 C12.9399119,10.2576613 12.9445727,10.2485888 12.9383582,10.2304435 C12.7892097,9.0751958 12.7146366,8.2314543 12.7146366,7.6991935 L12.7146366,5.94818548 C12.7146366,5.80302347 12.7690128,5.67752069 12.8777669,5.57167339 C12.986521,5.46582608 13.1154704,5.41290323 13.2646188,5.41290323 L13.7866359,5.41290323 C13.9419989,5.41290323 14.0725018,5.46582608 14.1781487,5.57167339 C14.2837955,5.67752069 14.3366181,5.80302347 14.3366181,5.94818548 L14.3366181,11.7909274 C14.3366181,11.9360894 14.2837955,12.0615922 14.1781487,12.1674395 C14.0725018,12.2732868 13.9419989,12.3262097 13.7866359,12.3262097 L13.152758,12.3262097 C12.984966,12.3262097 12.8280517,12.2838714 12.6820105,12.1991935 C12.5359693,12.1145157 12.4256633,11.9965733 12.351089,11.8453629 L10.8409683,8.9875 L10.1604818,7.4995968 C10.1542673,7.4814515 10.143392,7.472379 10.1278557,7.472379 C10.1123194,7.472379 10.1045514,7.4814515 10.1045514,7.4995968 C10.1107659,7.5963715 10.1371772,7.8443528 10.1837861,8.2435484 C10.230395,8.6427439 10.2645743,8.9784261 10.2863252,9.2506048 C10.308076,9.5227836 10.3189512,9.7828617 10.3189512,10.0308468 L10.3189512,11.7909274 C10.3189512,11.9360894 10.2661286,12.0615922 10.1604818,12.1674395 C10.0548349,12.2732868 9.92433198,12.3262097 9.76896899,12.3262097 L9.24695194,12.3262097 Z M16.7486683,12.3262097 C16.5995199,12.3262097 16.4705705,12.2732868 16.3618164,12.1674395 C16.2530623,12.0615922 16.1986861,11.9360894 16.1986861,11.7909274 L16.1986861,5.94818548 C16.1986861,5.80302347 16.2530623,5.67752069 16.3618164,5.57167339 C16.4705705,5.46582608 16.5995199,5.41290323 16.7486683,5.41290323 L20.1511009,5.41290323 C20.3064638,5.41290323 20.4369668,5.46582608 20.5426136,5.57167339 C20.6482605,5.67752069 20.7010831,5.80302347 20.7010831,5.94818548 L20.7010831,6.25665323 C20.7010831,6.40181524 20.6482605,6.52731802 20.5426136,6.63316532 C20.4369668,6.73901263 20.3064638,6.79193548 20.1511009,6.79193548 L17.9791371,6.79193548 C17.9294209,6.79193548 17.9045632,6.81310463 17.9045632,6.85544355 L17.9045632,8.0076613 C17.9045632,8.0500002 17.9294209,8.0711694 17.9791371,8.0711694 L19.7316229,8.0711694 C19.8869859,8.0711694 20.0174888,8.1240922 20.1231357,8.2299395 C20.2287825,8.3357868 20.2816051,8.4612896 20.2816051,8.6064516 L20.2816051,8.9330645 C20.2816051,9.0782265 20.2287825,9.2037293 20.1231357,9.3095766 C20.0174888,9.4154239 19.8869859,9.4683468 19.7316229,9.4683468 L17.9791371,9.4683468 C17.9294209,9.4683468 17.9045632,9.4895159 17.9045632,9.5318548 L17.9045632,10.8655242 C17.9045632,10.9078631 17.9294209,10.9290323 17.9791371,10.9290323 L20.2629616,10.9290323 C20.4121101,10.9290323 20.5410595,10.9819551 20.6498136,11.0878024 C20.7585677,11.1936497 20.8129439,11.3191525 20.8129439,11.4643145 L20.8129439,11.7909274 C20.8129439,11.9360894 20.7585677,12.0615922 20.6498136,12.1674395 C20.5410595,12.2732868 20.4121101,12.3262097 20.2629616,12.3262097 L16.7486683,12.3262097 Z M23.5885417,12.3262097 C23.4269642,12.3262097 23.285586,12.276311 23.1644028,12.1765121 C23.0432197,12.0767132 22.967093,11.9512104 22.9360204,11.8 L21.8360559,5.9391129 C21.8298414,5.90887082 21.8267341,5.87862918 21.8267341,5.8483871 C21.8267341,5.75161242 21.8640207,5.66088752 21.9385949,5.57620968 C22.0255982,5.46733817 22.1405651,5.41290323 22.2834991,5.41290323 L22.9360204,5.41290323 C23.0913834,5.41290323 23.2281007,5.46280192 23.3461766,5.56260081 C23.4642525,5.66239969 23.5357184,5.79092663 23.5605765,5.94818548 L23.9334458,8.5610887 L24.2130978,10.7385081 C24.2193123,10.7506049 24.2286339,10.7566532 24.241063,10.7566532 C24.253492,10.7566532 24.2597064,10.7506049 24.2597064,10.7385081 C24.3839968,10.0489885 24.5238214,9.3231893 24.6791844,8.5610887 L25.2850971,5.9391129 C25.3161697,5.78790247 25.3954036,5.66239969 25.5228013,5.56260081 C25.6501989,5.46280192 25.7946843,5.41290323 25.9562618,5.41290323 L26.2825225,5.41290323 C26.4441,5.41290323 26.5885854,5.46128984 26.7159831,5.55806452 C26.8433807,5.65483919 26.9226147,5.78185405 26.9536873,5.9391129 L27.5782434,8.5610887 C27.634174,8.8272191 27.7071936,9.2097757 27.7973041,9.7087702 C27.8874146,10.2077646 27.9511125,10.547983 27.9883996,10.7294355 C27.9883996,10.7475807 27.9961677,10.7566532 28.011704,10.7566532 C28.0272403,10.7566532 28.0350083,10.7475807 28.0350083,10.7294355 C28.0722954,10.4512083 28.1220108,10.0626033 28.184156,9.5636089 C28.2463012,9.0646144 28.286695,8.7304444 28.3053385,8.5610887 L28.6875296,5.94818548 C28.7061732,5.79092663 28.7760854,5.66239969 28.8972686,5.56260081 C29.0184517,5.46280192 29.1567227,5.41290323 29.3120857,5.41290323 L29.8341027,5.41290323 C29.9770367,5.41290323 30.0951108,5.46733817 30.1883286,5.57620968 C30.2629028,5.66088752 30.3001894,5.75463658 30.3001894,5.85745968 C30.3001894,5.88165335 30.2970822,5.90887082 30.2908677,5.9391129 L29.2468336,11.8 C29.2219755,11.9512104 29.148956,12.0767132 29.0277728,12.1765121 C28.9065897,12.276311 28.7652115,12.3262097 28.603634,12.3262097 L27.5595999,12.3262097 C27.3980224,12.3262097 27.2550906,12.276311 27.1308002,12.1765121 C27.0065098,12.0767132 26.9288295,11.9512104 26.8977569,11.8 L26.3664181,9.3141129 C26.2545567,8.7879006 26.1644475,8.2616962 26.0960878,7.7354839 C26.0898733,7.7173386 26.0789981,7.7082661 26.0634618,7.7082661 C26.0479255,7.7082661 26.0401574,7.7173386 26.0401574,7.7354839 C25.903438,8.5520202 25.8102216,9.0782246 25.7605054,9.3141129 L25.2571319,11.8 C25.2198447,11.9512104 25.1406108,12.0767132 25.0194277,12.1765121 C24.8982445,12.276311 24.7568663,12.3262097 24.5952888,12.3262097 L23.5885417,12.3262097 Z" id="Shape" fill="#FFFFFF"/>
        </g>
    </g>
</svg>