<svg xmlns="http://www.w3.org/2000/svg" xmlns:xlink="http://www.w3.org/1999/xlink" width="18" height="18" viewBox="0 0 18 18" version="1.1">
    <title>ic_search_18 copy</title>
    <g id="Page-1" stroke="none" stroke-width="1" fill="none" fill-rule="evenodd">
        <g id="æ±‚è·å¸³æˆ¶ä¸­å¿ƒ_after-copy" transform="translate(-683.000000, -324.000000)">
            <g id="ic_search_18-copy" transform="translate(683.000000, 324.000000)">
                <rect id="icon_area" x="0" y="0" width="18" height="18"/>
                <path d="M14.0590407,13.1926116 L16.1322557,15.2632207 C16.3725814,15.5032578 16.3725814,15.892435 16.1322557,16.1324721 C15.8943332,16.3701089 15.5100629,16.3724853 15.2692134,16.1396012 L13.1959984,14.0689921 C12.9556727,13.828955 12.9556727,13.4397778 13.1959984,13.1997407 C13.4339209,12.9621039 13.8181912,12.9597275 14.0590407,13.1926116 Z M8.15415283,1.6875 C11.7255866,1.6875 14.6208057,4.57924254 14.6208057,8.14638774 C14.6208057,11.7135329 11.7255866,14.6052755 8.15415283,14.6052755 C4.58271909,14.6052755 1.6875,11.7135329 1.6875,8.14638774 C1.6875,4.57924254 4.58271909,1.6875 8.15415283,1.6875 Z M8.15415283,2.87417229 C5.23888802,2.87417229 2.87559894,5.23462355 2.87559894,8.14638774 C2.87559894,11.0581519 5.23888802,13.4186032 8.15415283,13.4186032 C11.0694176,13.4186032 13.4327067,11.0581519 13.4327067,8.14638774 C13.4327067,5.23462355 11.0694176,2.87417229 8.15415283,2.87417229 Z" id="ðŸŽ¨color" fill="#2369FF" fill-rule="nonzero"/>
            </g>
        </g>
    </g>
</svg>