<svg xmlns:xlink="http://www.w3.org/1999/xlink" xmlns="http://www.w3.org/2000/svg" width="19" height="18" viewBox="0 0 19 18">
    <g fill="none" fill-rule="evenodd">
        <g>
            <g>
                <path d="M0 0H18V18H0z" transform="translate(-731 -847) translate(731 847)"/>
                <path fill="#6596FF" fill-rule="nonzero" d="M9 1.503C4.86 1.503 1.503 4.859 1.503 9c0 4.14 3.356 7.497 7.497 7.497 4.14 0 7.497-3.356 7.497-7.497 0-4.14-3.356-7.497-7.497-7.497zm0 .932c3.626 0 6.565 2.939 6.565 6.565 0 3.626-2.939 6.565-6.565 6.565-3.626 0-6.565-2.939-6.565-6.565 0-3.626 2.939-6.565 6.565-6.565z" transform="translate(-731 -847) translate(731 847)"/>
                <path fill="#6596FF" stroke="#FFF" stroke-width="2" d="M16.45 1.852c1.692.754 1.477 1.155 1.482 1.437.008.375-.128.753-.408 1.044h0l-7.883 8.056-5.087-4.515c-.305-.298-.451-.693-.442-1.084.008-.375.16-.747.453-1.026.29-.277.663-.411 1.034-.405.375.005.748.154 1.029.443h0l2.644 2.77 6.147-6.28c.283-.29.657-.436 1.032-.44z" transform="translate(-731 -847) translate(731 847)"/>
            </g>
        </g>
    </g>
</svg>