<svg xmlns:xlink="http://www.w3.org/1999/xlink" xmlns="http://www.w3.org/2000/svg" width="24" height="24" viewBox="0 0 24 24" fill="none">
<path fill-rule="evenodd" clip-rule="evenodd" d="M16.1532 4.00786C17.7092 4.00184 19.2025 4.62098 20.2986 5.72658C21.3947 6.83218 22.0019 8.33178 21.984 9.88932C21.9817 11.3807 21.4503 12.8228 20.4846 13.9585C20.4036 14.0563 20.2775 14.1879 20.1145 14.3468L19.7415 14.6995L19.2843 15.1141L18.4715 15.828L16.8973 17.1702L14.6064 19.0773L12.5769 20.7405C12.2356 21.024 11.741 21.024 11.3996 20.7405L8.73494 18.5523L7.07928 17.1702L5.80269 16.0849L4.94807 15.3412L4.23502 14.6995L3.86208 14.3468C3.69906 14.1879 3.573 14.0563 3.49193 13.9585C2.52624 12.8228 1.99487 11.3807 1.99257 9.88932C1.97471 8.33178 2.58185 6.83218 3.67794 5.72658C4.77402 4.62098 6.2674 4.00184 7.8234 4.00786C9.12201 4.03428 10.3678 4.52758 11.333 5.39765C11.6781 5.70498 12.1985 5.70498 12.5436 5.39765C13.4415 4.58863 14.5816 4.10595 15.7805 4.02108L16.1532 4.00786ZM16.121 5.24851C15.2067 5.25765 14.3237 5.56713 13.6019 6.1284L13.3674 6.32475C12.6035 7.00502 11.476 7.04754 10.662 6.44816L10.5036 6.31973C9.75955 5.64905 8.79926 5.26878 7.81861 5.24866C6.59462 5.24393 5.41991 5.73097 4.55772 6.60063C3.69554 7.4703 3.21795 8.6499 3.23208 9.88741C3.23393 11.0847 3.66052 12.2425 4.44592 13.1663L4.50427 13.2334L4.6651 13.4015L5.01113 13.7338L5.47405 14.1553L6.04393 14.6581L6.9529 15.4411L8.88752 17.0685L11.9869 19.6195L13.887 18.0639L15.4898 16.7343L16.9015 15.5448L17.6356 14.9153L18.46 14.1922L19.084 13.621L19.3127 13.3988L19.4815 13.2224L19.5408 13.1542C20.316 12.2425 20.7426 11.0847 20.7446 9.87508C20.7586 8.6499 20.281 7.4703 19.4188 6.60063C18.623 5.79786 17.5608 5.32112 16.4356 5.25626L16.121 5.24851Z" fill="#353D49"/>
</svg>